<?xml version="1.0" standalone="no"?>
<!DOCTYPE svg PUBLIC "-//W3C//DTD SVG 1.1//EN" "http://www.w3.org/Graphics/SVG/1.1/DTD/svg11.dtd">
<svg version="1.1" xmlns="http://www.w3.org/2000/svg" viewBox="0 0 66.43802125223738 77.71061755672577" width="132.87604250447475" height="155.42123511345153" filter="invert(93%) hue-rotate(180deg)"><!-- svg-source:excalidraw --><metadata></metadata><defs><style class="style-fonts">
      </style></defs><g stroke-linecap="round"><g transform="translate(10.457075645029363 11.500757307605909) rotate(0 22.761934981089325 27.354551470756974)"><path d="M-0.46 -0.3 C7.31 2.18, 44.03 6.32, 45.9 15.74 C47.77 25.16, 16.61 49.75, 10.78 56.21 M1.5 -1.5 C9.2 1.12, 43.12 8.01, 45.05 17.29 C46.97 26.57, 18.8 47.88, 13.06 54.17" stroke="#1e1e1e" stroke-width="2" fill="none"></path></g><g transform="translate(10.457075645029363 11.500757307605909) rotate(0 22.761934981089325 27.354551470756974)"><path d="M24.6 32 C21.5 37.56, 19.28 40.63, 13.06 54.17 M24.6 32 C19.94 38.94, 17.3 46.37, 13.06 54.17" stroke="#1e1e1e" stroke-width="2" fill="none"></path></g><g transform="translate(10.457075645029363 11.500757307605909) rotate(0 22.761934981089325 27.354551470756974)"><path d="M36.16 44.6 C30.2 47.1, 25.22 47.15, 13.06 54.17 M36.16 44.6 C27.58 47.04, 20.92 50.09, 13.06 54.17" stroke="#1e1e1e" stroke-width="2" fill="none"></path></g></g><mask></mask></svg>